<mxfile host="drawio-plugin" modified="2023-03-05T02:53:07.766Z" agent="5.0 (Macintosh; Intel Mac OS X 10_15_7) AppleWebKit/537.36 (KHTML, like Gecko) Chrome/104.0.5112.102 Safari/537.36" version="20.5.3" etag="CRqtxMaJDYgs_utAxLcX" type="embed"><diagram id="cljQtj-MUjMjI96t9RMJ" name="Page-1"><mxGraphModel dx="892" dy="798" grid="1" gridSize="10" guides="1" tooltips="1" connect="1" arrows="1" fold="1" page="1" pageScale="1" pageWidth="850" pageHeight="1100" math="0" shadow="0"><root><mxCell id="0"/><mxCell id="1" parent="0"/><mxCell id="2" value="" style="rounded=0;whiteSpace=wrap;html=1;fillColor=#f8cecc;dashed=1;strokeColor=#b85450;shadow=0;" vertex="1" parent="1"><mxGeometry x="80" y="100" width="760" height="380" as="geometry"/></mxCell><mxCell id="3" value="" style="rounded=0;whiteSpace=wrap;html=1;fillColor=#fff2cc;dashed=1;strokeColor=#d6b656;shadow=0;" vertex="1" parent="1"><mxGeometry x="120" y="140" width="320" height="220" as="geometry"/></mxCell><mxCell id="4" value="L1缓存" style="rounded=1;whiteSpace=wrap;html=1;fillColor=#dae8fc;strokeColor=#6c8ebf;shadow=0;" vertex="1" parent="1"><mxGeometry x="294" y="180" width="120" height="60" as="geometry"/></mxCell><mxCell id="5" value="L1缓存" style="rounded=1;whiteSpace=wrap;html=1;fillColor=#dae8fc;strokeColor=#6c8ebf;shadow=0;" vertex="1" parent="1"><mxGeometry x="150" y="180" width="120" height="60" as="geometry"/></mxCell><mxCell id="6" value="L2缓存" style="rounded=1;whiteSpace=wrap;html=1;fillColor=#dae8fc;strokeColor=#6c8ebf;shadow=0;" vertex="1" parent="1"><mxGeometry x="150" y="280" width="270" height="60" as="geometry"/></mxCell><mxCell id="7" value="核心1" style="text;html=1;strokeColor=none;fillColor=none;align=center;verticalAlign=middle;whiteSpace=wrap;rounded=0;shadow=0;" vertex="1" parent="1"><mxGeometry x="150" y="140" width="60" height="30" as="geometry"/></mxCell><mxCell id="8" value="" style="rounded=0;whiteSpace=wrap;html=1;fillColor=#fff2cc;dashed=1;strokeColor=#d6b656;shadow=0;" vertex="1" parent="1"><mxGeometry x="480" y="140" width="320" height="220" as="geometry"/></mxCell><mxCell id="9" value="L1缓存" style="rounded=1;whiteSpace=wrap;html=1;fillColor=#dae8fc;strokeColor=#6c8ebf;shadow=0;" vertex="1" parent="1"><mxGeometry x="654" y="180" width="120" height="60" as="geometry"/></mxCell><mxCell id="10" value="L1缓存" style="rounded=1;whiteSpace=wrap;html=1;fillColor=#dae8fc;strokeColor=#6c8ebf;shadow=0;" vertex="1" parent="1"><mxGeometry x="510" y="180" width="120" height="60" as="geometry"/></mxCell><mxCell id="11" value="L2缓存" style="rounded=1;whiteSpace=wrap;html=1;fillColor=#dae8fc;strokeColor=#6c8ebf;shadow=0;" vertex="1" parent="1"><mxGeometry x="510" y="280" width="270" height="60" as="geometry"/></mxCell><mxCell id="12" value="核心2" style="text;html=1;strokeColor=none;fillColor=none;align=center;verticalAlign=middle;whiteSpace=wrap;rounded=0;shadow=0;" vertex="1" parent="1"><mxGeometry x="510" y="140" width="60" height="30" as="geometry"/></mxCell><mxCell id="13" value="L3缓存" style="rounded=1;whiteSpace=wrap;html=1;fillColor=#dae8fc;strokeColor=#6c8ebf;shadow=0;" vertex="1" parent="1"><mxGeometry x="120" y="400" width="680" height="60" as="geometry"/></mxCell><mxCell id="14" value="CPU" style="text;html=1;strokeColor=none;fillColor=none;align=center;verticalAlign=middle;whiteSpace=wrap;rounded=0;shadow=0;" vertex="1" parent="1"><mxGeometry x="90" y="100" width="60" height="30" as="geometry"/></mxCell><mxCell id="15" value="内存" style="rounded=1;whiteSpace=wrap;html=1;fillColor=#ffe6cc;strokeColor=#d79b00;shadow=0;" vertex="1" parent="1"><mxGeometry x="80" y="520" width="760" height="125" as="geometry"/></mxCell><mxCell id="16" value="" style="endArrow=classic;startArrow=classic;html=1;rounded=0;exitX=0.5;exitY=0;exitDx=0;exitDy=0;entryX=0.5;entryY=1;entryDx=0;entryDy=0;shadow=0;" edge="1" parent="1" source="15" target="13"><mxGeometry width="50" height="50" relative="1" as="geometry"><mxPoint x="460" y="430" as="sourcePoint"/><mxPoint x="510" y="380" as="targetPoint"/></mxGeometry></mxCell><mxCell id="17" value="" style="endArrow=classic;startArrow=classic;html=1;rounded=0;entryX=0.5;entryY=1;entryDx=0;entryDy=0;exitX=0.222;exitY=0;exitDx=0;exitDy=0;exitPerimeter=0;shadow=0;" edge="1" parent="1" source="6" target="5"><mxGeometry width="50" height="50" relative="1" as="geometry"><mxPoint x="460" y="430" as="sourcePoint"/><mxPoint x="510" y="380" as="targetPoint"/></mxGeometry></mxCell><mxCell id="18" value="" style="endArrow=classic;startArrow=classic;html=1;rounded=0;entryX=0.5;entryY=1;entryDx=0;entryDy=0;exitX=0.222;exitY=0;exitDx=0;exitDy=0;exitPerimeter=0;shadow=0;" edge="1" parent="1"><mxGeometry width="50" height="50" relative="1" as="geometry"><mxPoint x="353.5" y="280" as="sourcePoint"/><mxPoint x="353.5" y="240" as="targetPoint"/></mxGeometry></mxCell><mxCell id="19" value="" style="endArrow=classic;startArrow=classic;html=1;rounded=0;exitX=0.222;exitY=0;exitDx=0;exitDy=0;entryX=0.5;entryY=1;entryDx=0;entryDy=0;exitPerimeter=0;shadow=0;" edge="1" parent="1" source="11" target="10"><mxGeometry width="50" height="50" relative="1" as="geometry"><mxPoint x="460" y="430" as="sourcePoint"/><mxPoint x="510" y="380" as="targetPoint"/></mxGeometry></mxCell><mxCell id="20" value="" style="endArrow=classic;startArrow=classic;html=1;rounded=0;exitX=0.75;exitY=0;exitDx=0;exitDy=0;shadow=0;" edge="1" parent="1" source="11" target="9"><mxGeometry width="50" height="50" relative="1" as="geometry"><mxPoint x="580" y="290" as="sourcePoint"/><mxPoint x="580" y="250" as="targetPoint"/></mxGeometry></mxCell><mxCell id="21" value="" style="endArrow=classic;startArrow=classic;html=1;rounded=0;entryX=0.5;entryY=1;entryDx=0;entryDy=0;exitX=0.241;exitY=-0.033;exitDx=0;exitDy=0;exitPerimeter=0;shadow=0;" edge="1" parent="1" source="13" target="6"><mxGeometry width="50" height="50" relative="1" as="geometry"><mxPoint x="460" y="430" as="sourcePoint"/><mxPoint x="510" y="380" as="targetPoint"/></mxGeometry></mxCell><mxCell id="22" value="" style="endArrow=classic;startArrow=classic;html=1;rounded=0;entryX=0.5;entryY=1;entryDx=0;entryDy=0;shadow=0;" edge="1" parent="1"><mxGeometry width="50" height="50" relative="1" as="geometry"><mxPoint x="650" y="400" as="sourcePoint"/><mxPoint x="649" y="340" as="targetPoint"/></mxGeometry></mxCell></root></mxGraphModel></diagram></mxfile>